<?xml version="1.0" encoding="iso-8859-1"?>
<!-- Generator: Adobe Illustrator 19.0.0, SVG Export Plug-In . SVG Version: 6.00 Build 0)  -->
<svg version="1.1" id="Layer_1" xmlns="http://www.w3.org/2000/svg" xmlns:xlink="http://www.w3.org/1999/xlink" x="0px" y="0px"
	 viewBox="0 0 512 512" style="enable-background:new 0 0 512 512;" xml:space="preserve">
<g>
	<g>
		<path d="M484.768,84.074c-1.929-3.941-5.932-6.438-10.318-6.438h-50.919l23.482-48.722c2.754-5.717,0.354-12.583-5.362-15.339
			c-5.716-2.753-12.584-0.354-15.339,5.362l-28.29,58.699H208.188c-2.996-19.618-12.233-37.686-26.679-51.728
			C164.323,9.201,141.655,0,117.681,0C67.163,0,26.062,41.099,26.062,91.618s41.099,91.618,91.618,91.618
			c15.355,0,30.206-3.783,43.529-11.009l6.005,7.731l114.127,146.938v120.767h-65.295c-6.345,0-11.489,5.145-11.489,11.489v29.871
			H194.6c-6.345,0-11.489,5.145-11.489,11.489c0,6.344,5.144,11.489,11.489,11.489h21.446h153.568h21.446
			c6.344,0,11.489-5.145,11.489-11.489c0-6.344-5.145-11.489-11.489-11.489h-9.957v-29.871c0-6.344-5.145-11.489-11.489-11.489
			H304.32V326.896l114.127-146.938l65.077-83.787C486.212,92.708,486.696,88.014,484.768,84.074z M117.681,160.258
			c-37.848,0-68.64-30.792-68.64-68.64s30.791-68.64,68.64-68.64c33.261,0,60.809,23.207,67.211,54.658h-73.681
			c-4.386,0-8.39,2.498-10.319,6.438c-1.928,3.941-1.445,8.635,1.245,12.098l14.733,18.968l29.989,38.613
			C137.788,158.032,127.882,160.258,117.681,160.258z M167.22,142.508h120.231c6.344,0,11.489-5.145,11.489-11.489
			c0-6.344-5.145-11.489-11.489-11.489H149.373l-14.692-18.916h63.066h189.202l-29.308,60.809H181.912L167.22,142.508z
			 M358.125,470.64v18.382h-0.001H227.535V470.64H358.125z M369.427,205.612h-69.046c-6.344,0-11.489,5.145-11.489,11.489
			c0,6.344,5.145,11.489,11.489,11.489h51.199l-58.749,75.64L199.76,184.4h165.05c0.014,0,0.028,0.002,0.04,0.002
			c0.01,0,0.022-0.002,0.032-0.002h21.02L369.427,205.612z M403.748,161.423h-20.599l29.308-60.809h38.523L403.748,161.423z"/>
	</g>
</g>
<g>
	<g>
		<path d="M338.157,128.773c-0.149-0.735-0.368-1.459-0.655-2.148c-0.287-0.689-0.643-1.366-1.057-1.986
			c-0.412-0.633-0.895-1.219-1.424-1.747c-0.541-0.528-1.126-1.011-1.747-1.425c-0.632-0.412-1.298-0.77-1.986-1.057
			c-0.69-0.287-1.413-0.504-2.148-0.654c-1.482-0.3-3.01-0.3-4.492,0c-0.736,0.149-1.46,0.366-2.148,0.654
			c-0.688,0.287-1.356,0.645-1.988,1.057c-0.62,0.414-1.206,0.896-1.735,1.425c-0.54,0.529-1.011,1.114-1.436,1.747
			c-0.412,0.62-0.77,1.298-1.057,1.986c-0.287,0.69-0.504,1.413-0.655,2.148c-0.149,0.735-0.217,1.494-0.217,2.24
			c0,0.758,0.069,1.505,0.217,2.252c0.151,0.735,0.368,1.459,0.655,2.148s0.645,1.356,1.057,1.986
			c0.425,0.62,0.896,1.206,1.436,1.747c0.528,0.529,1.114,1.011,1.735,1.425c0.633,0.412,1.299,0.77,1.988,1.057
			c0.688,0.287,1.412,0.504,2.148,0.654c0.746,0.149,1.505,0.23,2.252,0.23c0.746,0,1.505-0.08,2.24-0.23s1.459-0.367,2.148-0.654
			c0.689-0.287,1.356-0.644,1.986-1.057c0.62-0.414,1.206-0.896,1.747-1.425c0.529-0.541,1.011-1.126,1.424-1.747
			c0.414-0.632,0.77-1.298,1.057-1.986c0.287-0.69,0.505-1.413,0.655-2.148c0.149-0.747,0.23-1.494,0.23-2.252
			C338.387,130.266,338.306,129.508,338.157,128.773z"/>
	</g>
</g>
<g>
	<g>
		<path d="M269.062,208.975c-2.664-2.664-6.639-3.894-10.373-3.135c-0.735,0.149-1.46,0.368-2.148,0.655
			c-0.689,0.287-1.356,0.643-1.988,1.057c-0.62,0.412-1.218,0.895-1.746,1.423c-2.137,2.137-3.366,5.101-3.366,8.123
			c0,0.747,0.08,1.506,0.23,2.252c0.149,0.724,0.368,1.448,0.655,2.148c0.287,0.689,0.643,1.356,1.057,1.976
			c0.425,0.633,0.896,1.219,1.425,1.747c0.54,0.529,1.126,1.011,1.746,1.425c0.632,0.412,1.298,0.77,1.988,1.057
			c0.689,0.287,1.413,0.516,2.148,0.654c0.735,0.149,1.494,0.23,2.24,0.23c0.758,0,1.505-0.08,2.252-0.23
			c0.735-0.138,1.459-0.367,2.148-0.654s1.356-0.645,1.986-1.057c0.62-0.414,1.219-0.896,1.747-1.425
			c0.529-0.529,1-1.114,1.423-1.747c0.414-0.62,0.771-1.287,1.058-1.976c0.287-0.701,0.504-1.425,0.654-2.148
			c0.149-0.746,0.23-1.505,0.23-2.252C272.428,214.076,271.199,211.112,269.062,208.975z"/>
	</g>
</g>
<g>
</g>
<g>
</g>
<g>
</g>
<g>
</g>
<g>
</g>
<g>
</g>
<g>
</g>
<g>
</g>
<g>
</g>
<g>
</g>
<g>
</g>
<g>
</g>
<g>
</g>
<g>
</g>
<g>
</g>
</svg>
