<?xml version="1.0" encoding="iso-8859-1"?>
<!-- Generator: Adobe Illustrator 19.0.0, SVG Export Plug-In . SVG Version: 6.00 Build 0)  -->
<svg version="1.1" id="Layer_1" xmlns="http://www.w3.org/2000/svg" xmlns:xlink="http://www.w3.org/1999/xlink" x="0px" y="0px"
	 viewBox="0 0 512 512" style="enable-background:new 0 0 512 512;" xml:space="preserve">
<polygon style="fill:#81E3E2;" points="219.429,250.374 219.429,340.396 163.165,340.396 129.407,295.385 163.165,250.374 "/>
<polygon style="fill:#ABECEC;" points="163.165,250.374 163.165,340.396 56.264,340.396 0,295.385 56.264,250.374 "/>
<polygon style="fill:#81E3E2;" points="455.736,126.593 421.978,126.593 421.978,216.615 455.736,216.615 512,171.604 "/>
<polygon style="fill:#ABECEC;" points="292.571,126.593 421.978,126.593 478.242,171.604 421.978,216.615 292.571,216.615 "/>
<polygon style="fill:#81E3E2;" points="219.429,126.593 219.429,216.615 163.165,216.615 129.407,171.604 163.165,126.593 "/>
<polygon style="fill:#ABECEC;" points="163.165,126.593 163.165,216.615 56.264,216.615 0,171.604 56.264,126.593 "/>
<polygon style="fill:#272727;" points="256,437.529 284.717,460.035 256,512 "/>
<polygon style="fill:#4D4D4D;" points="227.283,460.035 247.797,437.529 268.311,460.035 256,512 "/>
<polygon style="fill:#FEA680;" points="268.311,382.593 315.077,405.099 284.717,460.035 268.311,460.035 "/>
<polygon style="fill:#FFC1A6;" points="281.319,405.099 268.311,460.035 227.283,460.035 196.923,405.099 239.121,382.593 "/>
<path style="fill:#FE5F1A;" d="M281.319,115.341l33.758-22.506V59.077C315.077,26.455,288.622,0,256,0L281.319,115.341z"/>
<path style="fill:#FE834D;" d="M196.923,59.077C196.923,26.444,223.367,0,256,0c13.987,0,25.319,26.455,25.319,59.077v56.264
	l-84.081-22.506h-0.315V59.077z"/>
<polygon style="fill:#DFC136;" points="258.813,104.088 315.077,126.593 315.077,405.099 281.319,405.099 "/>
<polygon style="fill:#FEDC3D;" points="233.495,104.088 281.319,126.593 281.319,405.099 256,405.099 "/>
<polygon style="fill:#FFE777;" points="197.238,126.593 256,104.088 256,405.099 196.923,405.099 196.923,126.593 "/>
<polygon style="fill:#B9B9B9;" points="281.319,126.593 315.077,126.593 315.077,92.835 281.319,92.835 258.813,109.714 "/>
<rect x="196.923" y="92.835" style="fill:#DCDCDC;" width="84.396" height="33.758"/>
<g>
</g>
<g>
</g>
<g>
</g>
<g>
</g>
<g>
</g>
<g>
</g>
<g>
</g>
<g>
</g>
<g>
</g>
<g>
</g>
<g>
</g>
<g>
</g>
<g>
</g>
<g>
</g>
<g>
</g>
</svg>
